<svg width="1920" height="7067" viewBox="0 0 1920 7067" fill="none" xmlns="http://www.w3.org/2000/svg">
<g opacity="0.2">
<path opacity="0.6" d="M1422 1051L747.697 2830.69C743.979 2840.5 751.229 2851 761.724 2851H1912" stroke="#737380" stroke-width="5"/>
<path opacity="0.6" d="M1421 1051L1920 1051" stroke="#737380" stroke-width="4"/>
<path opacity="0.6" d="M548 1.21143L249.71 491.492C246.31 497.079 239.683 499.82 233.33 498.266L0 441.168" stroke="#737380" stroke-width="4"/>
<path opacity="0.6" d="M620 5719L434 5157H8" stroke="#737380" stroke-width="4"/>
<path opacity="0.6" d="M-16 4731H620L840 5381" stroke="#737380" stroke-width="5"/>
<path opacity="0.6" d="M1924 5087L712 3751H1896.18" stroke="#737380" stroke-width="5"/>
<path opacity="0.6" d="M1924 4643L1108 3747" stroke="#737380" stroke-width="5"/>
<path opacity="0.6" d="M1358 2081L1540 1489H1918" stroke="#737380" stroke-width="5"/>
<path opacity="0.6" d="M928 5779L1088 6159H1920" stroke="#737380" stroke-width="5"/>
<path opacity="0.6" d="M0 6095H331.919L672 7065" stroke="#737380" stroke-width="5"/>
<path opacity="0.6" d="M-4 6411H174L369 6934" stroke="#737380" stroke-width="5"/>
<path d="M367 6932H-1" stroke="#737380" stroke-width="5" stroke-linecap="round"/>
<path opacity="0.6" d="M904 489L434 1429L-20 1273" stroke="#484854" stroke-width="5" stroke-linecap="round" stroke-linejoin="round"/>
<path opacity="0.6" d="M670 7064H1920" stroke="#737380" stroke-width="5"/>
<path opacity="0.6" d="M904 489H1928" stroke="#737380" stroke-width="5"/>
</g>
</svg>
