<svg width="580" height="60" viewBox="0 0 580 60" fill="none" xmlns="http://www.w3.org/2000/svg">
<rect x="444" y="37.5881" width="1088" height="16" transform="rotate(-180 444 37.5881)" fill="#E43145"/>
<path d="M506.196 29.5673L480.888 0.000147519L464.05 0.000145968L489.332 29.5673L489.156 29.7941L505.994 29.7941L506.196 29.5673Z" fill="#E43145"/>
<path d="M489.156 29.7941L464 59.21L464.328 59.5881L480.535 59.5881L505.994 29.7941L489.156 29.7941Z" fill="#E43145"/>
<path d="M526.058 29.7941L542.921 29.7941L543.098 29.5673L517.791 0.000147519L500.953 0.000145968L526.26 29.5673L526.058 29.7941Z" fill="#E43145"/>
<path d="M526.058 29.7941L500.902 59.21L501.23 59.5881L517.438 59.5881L542.921 29.7941L526.058 29.7941Z" fill="#E43145"/>
<path d="M562.96 29.7941L579.824 29.7941L580 29.5673L554.718 0.000147521L537.855 0.000145968L563.162 29.5673L562.96 29.7941Z" fill="#E43145"/>
<path d="M562.96 29.7941L537.83 59.21L538.132 59.5881L554.34 59.5881L579.824 29.7941L562.96 29.7941Z" fill="#E43145"/>
</svg>
