<svg width="470" height="248" viewBox="0 0 470 248" fill="none" xmlns="http://www.w3.org/2000/svg">
<path d="M306.815 124.944L412.142 248L482.22 248L376.998 124.944L377.732 124L307.655 124L306.815 124.944Z" fill="#000000"/>
<path d="M223.958 124L328.655 1.5736L327.291 -5.96131e-08L259.836 -3.00817e-06L153.88 124L223.958 124Z" fill="#000000"/>
<path d="M224.328 124L154.145 124L153.411 124.944L258.738 248L328.815 248L223.489 124.944L224.328 124Z" fill="#000000"/>
<path d="M70.1827 124L174.88 1.5736L173.516 -5.96133e-08L106.061 -3.00817e-06L9.83858e-06 124L70.1827 124Z" fill="#000000"/>
<path d="M70.9239 124L0.74115 124L0.00679012 124.944L105.228 248L175.411 248L70.0846 124.944L70.9239 124Z" fill="#000000"/>
<path d="M377.837 124L482.43 1.5736L481.171 -5.50267e-08L413.716 -3.00359e-06L307.655 124L377.837 124Z" fill="#000000"/>
</svg>
