<svg width="1183" height="60" viewBox="0 0 1183 60" fill="none" xmlns="http://www.w3.org/2000/svg">
<rect x="136" y="22" width="1088" height="16" fill="#E43145"/>
<path d="M73.8044 30.0208L99.1117 59.5879L115.95 59.5879L90.6675 30.0208L90.844 29.7939L74.0061 29.7939L73.8044 30.0208Z" fill="#E43145"/>
<path d="M90.844 29.794L116 0.378096L115.672 -1.44801e-09L99.4646 -7.30688e-08L74.0061 29.794L90.844 29.794Z" fill="#E43145"/>
<path d="M53.9418 29.7939L37.0787 29.7939L36.9022 30.0208L62.2095 59.5879L79.0474 59.5879L53.7401 30.0208L53.9418 29.7939Z" fill="#E43145"/>
<path d="M53.9418 29.794L79.0978 0.378096L78.7701 -1.44801e-09L62.5624 -7.30687e-08L37.0787 29.794L53.9418 29.794Z" fill="#E43145"/>
<path d="M17.0395 29.7939L0.176426 29.7939L-2.2882e-05 30.0208L25.282 59.5879L42.1451 59.5879L16.8379 30.0208L17.0395 29.7939Z" fill="#E43145"/>
<path d="M17.0395 29.794L42.1703 0.378096L41.8679 -1.3366e-09L25.6601 -7.29572e-08L0.176442 29.794L17.0395 29.794Z" fill="#E43145"/>
</svg>
