<svg width="32" height="30" viewBox="0 0 32 30" fill="none" xmlns="http://www.w3.org/2000/svg">
<rect x="1" y="1" width="29.3043" height="28" rx="7" stroke="#484854" stroke-width="2"/>
<g clip-path="url(#clip0_764_314)">
<path d="M20.0543 3.13037H11.25C7.19851 3.13037 3.91302 6.41586 3.91302 10.4673V19.2717C3.91302 23.3231 7.19851 26.6086 11.25 26.6086H20.0543C24.1058 26.6086 27.3913 23.3231 27.3913 19.2717V10.4673C27.3913 6.41586 24.1058 3.13037 20.0543 3.13037ZM25.1902 19.2717C25.1902 22.1037 22.8864 24.4075 20.0543 24.4075H11.25C8.41792 24.4075 6.11411 22.1037 6.11411 19.2717V10.4673C6.11411 7.63526 8.41792 5.33146 11.25 5.33146H20.0543C22.8864 5.33146 25.1902 7.63526 25.1902 10.4673V19.2717Z" fill="#484854"/>
<path d="M15.6522 9C12.4107 9 9.78259 11.6281 9.78259 14.8696C9.78259 18.111 12.4107 20.7391 15.6522 20.7391C18.8936 20.7391 21.5217 18.111 21.5217 14.8696C21.5217 11.6281 18.8936 9 15.6522 9ZM15.6522 18.538C13.6301 18.538 11.9837 16.8916 11.9837 14.8696C11.9837 12.846 13.6301 11.2011 15.6522 11.2011C17.6742 11.2011 19.3206 12.846 19.3206 14.8696C19.3206 16.8916 17.6742 18.538 15.6522 18.538Z" fill="#484854"/>
<path d="M21.962 9.34182C22.3939 9.34182 22.7441 8.99166 22.7441 8.5597C22.7441 8.12775 22.3939 7.77759 21.962 7.77759C21.53 7.77759 21.1799 8.12775 21.1799 8.5597C21.1799 8.99166 21.53 9.34182 21.962 9.34182Z" fill="#484854"/>
</g>
<defs>
<clipPath id="clip0_764_314">
<rect width="23.4783" height="23.4783" fill="white" transform="translate(3.91302 3.13037)"/>
</clipPath>
</defs>
</svg>
