<svg width="360" height="185" viewBox="0 0 360 185" fill="none" xmlns="http://www.w3.org/2000/svg">
<path d="M110.801 48.7598H90.0737V70H77.2197V16.6797H112.889V26.604H90.0737V38.8721H110.801V48.7598ZM148.99 60.0391H131.375L128.299 70H114.566L134.122 16.6797H146.207L165.909 70H152.103L148.99 60.0391ZM134.451 50.1147H145.914L140.164 31.6211L134.451 50.1147ZM195.162 55.498L205.782 16.6797H220.137L202.193 70H188.13L170.333 16.6797H184.578L195.162 55.498ZM264.625 47.4048H244.41V60.1123H268.287V70H231.556V16.6797H268.36V26.604H244.41V37.8467H264.625V47.4048ZM293.877 60.1123H316.253V70H281.023V16.6797H293.877V60.1123ZM360.191 60.0391H342.576L339.5 70H325.767L345.323 16.6797H357.408L377.11 70H363.304L360.191 60.0391ZM345.652 50.1147H357.115L351.365 31.6211L345.652 50.1147Z" fill="#E5E5E5" fill-opacity="0.5"/>
<path d="M23.8403 148.177H16.8823V167H4.02832V113.68H25.0122C31.3354 113.68 36.2793 115.083 39.8438 117.891C43.4082 120.699 45.1904 124.666 45.1904 129.793C45.1904 133.504 44.4336 136.58 42.9199 139.021C41.4307 141.463 39.0869 143.44 35.8887 144.954L47.0215 166.451V167H33.252L23.8403 148.177ZM16.8823 138.252H25.0122C27.4536 138.252 29.2847 137.618 30.5054 136.348C31.7505 135.054 32.373 133.26 32.373 130.965C32.373 128.67 31.7505 126.875 30.5054 125.582C29.2603 124.263 27.4292 123.604 25.0122 123.604H16.8823V138.252ZM90.7397 157.039H73.125L70.0488 167H56.3159L75.8716 113.68H87.9565L107.659 167H93.8525L90.7397 157.039ZM76.2012 147.115H87.6636L81.9141 128.621L76.2012 147.115ZM119.077 167V113.68H136.252C140.964 113.68 145.2 114.754 148.96 116.902C152.72 119.026 155.649 122.042 157.749 125.948C159.873 129.83 160.947 134.188 160.972 139.021V141.475C160.972 146.358 159.934 150.74 157.859 154.622C155.808 158.479 152.903 161.507 149.143 163.704C145.408 165.877 141.233 166.976 136.619 167H119.077ZM131.931 123.604V157.112H136.399C140.085 157.112 142.917 155.806 144.895 153.194C146.873 150.557 147.861 146.651 147.861 141.475V139.168C147.861 134.017 146.873 130.135 144.895 127.522C142.917 124.91 140.037 123.604 136.252 123.604H131.931ZM188.76 167H175.942V113.68H188.76V167ZM248.335 148.946C248.164 152.657 247.163 155.94 245.332 158.797C243.501 161.629 240.925 163.826 237.605 165.389C234.309 166.951 230.537 167.732 226.289 167.732C219.282 167.732 213.765 165.45 209.736 160.884C205.708 156.319 203.694 149.874 203.694 141.548V138.912C203.694 133.687 204.597 129.122 206.404 125.215C208.235 121.285 210.859 118.257 214.277 116.133C217.695 113.985 221.65 112.911 226.143 112.911C232.612 112.911 237.812 114.62 241.743 118.038C245.674 121.431 247.908 126.119 248.445 132.1H235.627C235.53 128.853 234.712 126.521 233.174 125.105C231.636 123.689 229.292 122.981 226.143 122.981C222.944 122.981 220.601 124.178 219.111 126.57C217.622 128.963 216.841 132.784 216.768 138.033V141.805C216.768 147.493 217.476 151.558 218.892 154C220.332 156.441 222.798 157.662 226.289 157.662C229.243 157.662 231.501 156.966 233.064 155.574C234.626 154.183 235.457 151.973 235.554 148.946H248.335ZM292.2 157.039H274.585L271.509 167H257.776L277.332 113.68H289.417L309.119 167H295.312L292.2 157.039ZM277.661 147.115H289.124L283.374 128.621L277.661 147.115ZM333.391 157.112H355.767V167H320.537V113.68H333.391V157.112Z" fill="#E5E5E5" fill-opacity="0.5"/>
</svg>
