<svg width="32" height="30" viewBox="0 0 32 30" fill="none" xmlns="http://www.w3.org/2000/svg">
<rect x="1.6087" y="1" width="29.3043" height="28" rx="7" stroke="#484854" stroke-width="2"/>
<g clip-path="url(#clip0_764_330)">
<path d="M28 7.58986C27.1269 7.97285 26.1966 8.22671 25.2266 8.34997C26.2244 7.75421 26.986 6.81801 27.3441 5.68959C26.4137 6.24426 25.3866 6.63605 24.2919 6.8547C23.4085 5.9141 22.1495 5.33154 20.776 5.33154C18.1112 5.33154 15.9659 7.49448 15.9659 10.1461C15.9659 10.5276 15.9982 10.8944 16.0774 11.2437C12.0759 11.0485 8.53504 9.13062 6.1564 6.20904C5.74113 6.92953 5.49754 7.75421 5.49754 8.64198C5.49754 10.3089 6.35597 11.7866 7.63553 12.6421C6.86222 12.6274 6.10358 12.4029 5.46086 12.0493C5.46086 12.0639 5.46086 12.083 5.46086 12.1021C5.46086 14.4411 7.12928 16.3839 9.31716 16.8315C8.92537 16.9386 8.49836 16.99 8.05521 16.99C7.74705 16.99 7.43597 16.9724 7.14396 16.9078C7.7676 18.8139 9.53727 20.2153 11.6415 20.2608C10.0039 21.5418 7.92461 22.3137 5.67363 22.3137C5.2789 22.3137 4.90032 22.2961 4.52173 22.2476C6.65385 23.6226 9.1807 24.4076 11.9056 24.4076C20.7628 24.4076 25.6052 17.0707 25.6052 10.711C25.6052 10.4982 25.5979 10.2928 25.5876 10.0888C26.5429 9.41089 27.3455 8.56421 28 7.58986Z" fill="#484854"/>
</g>
<defs>
<clipPath id="clip0_764_330">
<rect width="23.4783" height="23.4783" fill="white" transform="translate(4.52173 3.13037)"/>
</clipPath>
</defs>
</svg>
